<svg xmlns:xlink="http://www.w3.org/1999/xlink" xmlns="http://www.w3.org/2000/svg" width="24" height="24" viewBox="0 0 24 24" fill="none" role="img" class="icon ">
<path d="M20 15.0002V9.00024C20 4.02968 14.5 2 11.4737 2C8 2 3 4.02968 3 9.00024V15.0002M5.36842 18.0002C4.06038 18.0002 3 16.8809 3 15.5002V13.5002C3 12.1195 4.06038 11.0002 5.36842 11.0002C7.73684 11.0002 7.73684 12.1195 7.73684 13.5002V15.5002C7.73684 16.8809 7.73684 18.0002 5.36842 18.0002ZM17.6316 18.0002C15.2632 18.0002 15.2632 16.8809 15.2632 15.5002V13.5002C15.2632 12.1195 15.2632 11.0002 17.6316 11.0002C18.9396 11.0002 20 12.1195 20 13.5002V15.5002C20 16.8809 18.9396 18.0002 17.6316 18.0002Z" stroke="#060318" stroke-width="1.67px" stroke-linecap="round" stroke-linejoin="round" fill="none"></path>
<path d="M17.7321 18C17.7321 21 15.5 20.5 12 20.5" stroke="#060318" stroke-width="1.67px" stroke-linecap="round" fill="none"></path>
</svg>